<svg xmlns="http://www.w3.org/2000/svg" xmlns:xlink="http://www.w3.org/1999/xlink" width="48" zoomAndPan="magnify" viewBox="0 0 36 36.000001" height="48" preserveAspectRatio="xMidYMid meet" version="1.0"><path fill="#9884c9" d="M 28.953125 6.050781 C 35.285156 12.097656 35.515625 22.136719 29.46875 28.46875 C 23.421875 34.800781 13.382812 35.03125 7.050781 28.980469 C 0.71875 22.933594 0.488281 12.898438 6.539062 6.566406 C 12.585938 0.234375 22.621094 0.00390625 28.953125 6.050781 " fill-opacity="1" fill-rule="nonzero"/><path fill="#ffffff" d="M 15.980469 25.1875 C 15.683594 25.1875 15.398438 25.039062 15.226562 24.777344 L 7.175781 12.429688 L 5.507812 12.882812 C 5.027344 13.011719 4.53125 12.730469 4.402344 12.25 C 4.269531 11.769531 4.554688 11.273438 5.035156 11.144531 L 7.339844 10.519531 C 7.714844 10.417969 8.113281 10.570312 8.328125 10.898438 L 16.378906 23.246094 L 25.519531 20.765625 C 26 20.636719 26.496094 20.917969 26.625 21.398438 C 26.753906 21.878906 26.472656 22.375 25.992188 22.503906 L 16.21875 25.15625 C 16.140625 25.175781 16.0625 25.1875 15.980469 25.1875 " fill-opacity="1" fill-rule="nonzero"/><path fill="#ffffff" d="M 10.984375 14.972656 L 14.160156 19.839844 L 24.738281 16.96875 L 25.113281 11.136719 Z M 13.761719 21.78125 C 13.464844 21.78125 13.175781 21.632812 13.007812 21.371094 L 8.800781 14.917969 C 8.644531 14.675781 8.609375 14.375 8.714844 14.105469 C 8.816406 13.835938 9.042969 13.632812 9.320312 13.558594 L 25.855469 9.070312 C 26.136719 8.992188 26.4375 9.058594 26.660156 9.242188 C 26.886719 9.425781 27.007812 9.707031 26.992188 9.996094 L 26.496094 17.726562 C 26.472656 18.109375 26.203125 18.4375 25.832031 18.539062 L 13.996094 21.75 C 13.917969 21.769531 13.839844 21.78125 13.761719 21.78125 " fill-opacity="1" fill-rule="nonzero"/><path fill="#ffffff" d="M 17.71875 20.707031 C 17.371094 20.707031 17.039062 20.503906 16.890625 20.164062 L 13.96875 13.359375 C 13.773438 12.902344 13.984375 12.375 14.441406 12.175781 C 14.898438 11.980469 15.425781 12.191406 15.621094 12.648438 L 18.546875 19.453125 C 18.742188 19.910156 18.53125 20.4375 18.074219 20.632812 C 17.957031 20.683594 17.839844 20.707031 17.71875 20.707031 " fill-opacity="1" fill-rule="nonzero"/><path fill="#ffffff" d="M 22.140625 19.507812 C 21.695312 19.507812 21.308594 19.175781 21.246094 18.722656 L 20.292969 11.386719 C 20.230469 10.894531 20.578125 10.441406 21.070312 10.378906 C 21.5625 10.3125 22.015625 10.660156 22.078125 11.152344 L 23.035156 18.492188 C 23.097656 18.984375 22.75 19.4375 22.257812 19.5 C 22.21875 19.503906 22.179688 19.507812 22.140625 19.507812 " fill-opacity="1" fill-rule="nonzero"/><path fill="#ffffff" d="M 11.828125 18.816406 C 11.433594 18.816406 11.070312 18.554688 10.960938 18.152344 C 10.832031 17.671875 11.113281 17.179688 11.59375 17.046875 L 25.589844 13.25 C 26.070312 13.121094 26.5625 13.402344 26.691406 13.882812 C 26.824219 14.363281 26.539062 14.859375 26.058594 14.988281 L 12.066406 18.785156 C 11.988281 18.808594 11.90625 18.816406 11.828125 18.816406 " fill-opacity="1" fill-rule="nonzero"/><path fill="#ffffff" d="M 16.472656 25.117188 C 16.394531 25.117188 16.3125 25.128906 16.234375 25.148438 C 15.761719 25.277344 15.480469 25.769531 15.609375 26.242188 C 15.738281 26.714844 16.230469 26.996094 16.703125 26.867188 C 17.175781 26.738281 17.457031 26.25 17.328125 25.777344 C 17.265625 25.546875 17.117188 25.355469 16.910156 25.238281 C 16.777344 25.15625 16.625 25.117188 16.472656 25.117188 Z M 16.46875 28.699219 C 15.285156 28.699219 14.199219 27.910156 13.871094 26.714844 C 13.484375 25.28125 14.332031 23.800781 15.765625 23.410156 C 16.457031 23.222656 17.183594 23.316406 17.808594 23.675781 C 18.429688 24.03125 18.878906 24.609375 19.066406 25.304688 C 19.453125 26.734375 18.605469 28.21875 17.175781 28.605469 C 16.9375 28.667969 16.703125 28.699219 16.46875 28.699219 " fill-opacity="1" fill-rule="nonzero"/><path fill="#ffffff" d="M 26.164062 22.488281 C 26.085938 22.488281 26.007812 22.496094 25.929688 22.519531 C 25.703125 22.582031 25.511719 22.730469 25.390625 22.933594 C 25.273438 23.140625 25.242188 23.382812 25.304688 23.609375 C 25.367188 23.839844 25.515625 24.03125 25.722656 24.148438 C 25.925781 24.269531 26.167969 24.300781 26.398438 24.238281 C 26.871094 24.109375 27.152344 23.617188 27.023438 23.144531 C 26.914062 22.75 26.554688 22.488281 26.164062 22.488281 Z M 26.160156 26.070312 C 25.695312 26.070312 25.238281 25.949219 24.824219 25.710938 C 24.203125 25.355469 23.753906 24.777344 23.566406 24.082031 C 23.378906 23.390625 23.472656 22.664062 23.828125 22.039062 C 24.1875 21.417969 24.765625 20.96875 25.460938 20.78125 C 26.890625 20.390625 28.371094 21.242188 28.761719 22.671875 C 29.148438 24.105469 28.300781 25.585938 26.867188 25.976562 C 26.632812 26.039062 26.394531 26.070312 26.160156 26.070312 " fill-opacity="1" fill-rule="nonzero"/></svg>