<svg xmlns="http://www.w3.org/2000/svg" xmlns:xlink="http://www.w3.org/1999/xlink" width="48" zoomAndPan="magnify" viewBox="0 0 36 36.000001" height="48" preserveAspectRatio="xMidYMid meet" version="1.0"><defs><clipPath id="d398bccbbb"><path d="M 1.167969 0.679688 L 34.734375 0.679688 L 34.734375 34.25 L 1.167969 34.25 Z M 1.167969 0.679688 " clip-rule="nonzero"/></clipPath><clipPath id="208c40a9e4"><path d="M 12.90625 4.71875 L 23.125 4.71875 L 23.125 14.207031 L 12.90625 14.207031 Z M 12.90625 4.71875 " clip-rule="nonzero"/></clipPath></defs><g clip-path="url(#d398bccbbb)"><path fill="#9884c9" d="M 17.996094 0.679688 C 8.707031 0.679688 1.167969 8.21875 1.167969 17.511719 C 1.167969 26.800781 8.707031 34.339844 17.996094 34.339844 C 27.285156 34.339844 34.824219 26.800781 34.824219 17.511719 C 34.8125 8.21875 27.285156 0.679688 17.996094 0.679688 Z M 27.191406 10.90625 L 18.144531 18.21875 L 18.117188 18.246094 C 18.050781 18.300781 17.957031 18.300781 17.890625 18.246094 L 8.8125 10.90625 Z M 28.195312 21.226562 C 28.195312 22.816406 26.898438 24.113281 25.308594 24.113281 L 10.683594 24.113281 C 9.09375 24.113281 7.796875 22.816406 7.796875 21.226562 L 7.796875 12.125 L 16.859375 19.449219 C 17.179688 19.730469 17.59375 19.875 17.996094 19.875 C 18.398438 19.875 18.8125 19.730469 19.132812 19.449219 L 28.195312 12.125 Z M 28.195312 21.226562 " fill-opacity="1" fill-rule="nonzero"/></g><g clip-path="url(#208c40a9e4)"><path fill="#fdbb27" d="M 18 14.308594 L 23.105469 8.042969 L 20.96875 8.042969 L 20.96875 4.71875 L 15.03125 4.71875 L 15.03125 8.042969 L 12.890625 8.042969 Z M 18 14.308594 " fill-opacity="1" fill-rule="nonzero"/></g></svg>