<svg xmlns="http://www.w3.org/2000/svg" xmlns:xlink="http://www.w3.org/1999/xlink" width="50" zoomAndPan="magnify" viewBox="0 0 37.5 37.499999" height="50" preserveAspectRatio="xMidYMid meet" version="1.0"><defs><clipPath id="cddcfc0dee"><path d="M 0 0 L 37.007812 0 L 37.007812 37.007812 L 0 37.007812 Z M 0 0 " clip-rule="nonzero"/></clipPath><clipPath id="edfa1dbf19"><path d="M 0.902344 6.050781 L 36 6.050781 L 36 12 L 0.902344 12 Z M 0.902344 6.050781 " clip-rule="nonzero"/></clipPath><clipPath id="b60a2be39d"><path d="M 0.902344 15 L 36 15 L 36 22 L 0.902344 22 Z M 0.902344 15 " clip-rule="nonzero"/></clipPath><clipPath id="5925e346ca"><path d="M 0.902344 25 L 36 25 L 36 31 L 0.902344 31 Z M 0.902344 25 " clip-rule="nonzero"/></clipPath></defs><g clip-path="url(#cddcfc0dee)"><path fill="#ffffff" d="M 0 0 L 37.007812 0 L 37.007812 37.007812 L 0 37.007812 Z M 0 0 " fill-opacity="1" fill-rule="nonzero"/><path fill="#ffffff" d="M 0 0 L 37.007812 0 L 37.007812 37.007812 L 0 37.007812 Z M 0 0 " fill-opacity="1" fill-rule="nonzero"/></g><g clip-path="url(#edfa1dbf19)"><path fill="#8a98fd" d="M 32.625 11.320312 L 3.527344 11.320312 C 2.09375 11.320312 0.933594 10.160156 0.933594 8.726562 C 0.914062 7.035156 2.515625 6.058594 3.535156 6.132812 C 4.167969 6.136719 32.605469 6.132812 32.667969 6.132812 C 36.066406 6.316406 36.046875 11.183594 32.625 11.320312 Z M 32.625 11.320312 " fill-opacity="1" fill-rule="nonzero"/></g><g clip-path="url(#b60a2be39d)"><path fill="#8a98fd" d="M 32.625 21.136719 L 3.527344 21.136719 C 2.09375 21.136719 0.933594 19.976562 0.933594 18.546875 C 0.914062 16.855469 2.515625 15.875 3.535156 15.953125 C 4.167969 15.953125 32.605469 15.949219 32.667969 15.953125 C 36.066406 16.136719 36.046875 21.003906 32.625 21.136719 Z M 32.625 21.136719 " fill-opacity="1" fill-rule="nonzero"/></g><g clip-path="url(#5925e346ca)"><path fill="#8a98fd" d="M 32.625 30.957031 L 3.527344 30.957031 C 2.09375 30.957031 0.933594 29.796875 0.933594 28.363281 C 0.914062 26.671875 2.515625 25.695312 3.535156 25.769531 C 4.167969 25.769531 32.605469 25.769531 32.667969 25.769531 C 36.066406 25.953125 36.046875 30.820312 32.625 30.957031 Z M 32.625 30.957031 " fill-opacity="1" fill-rule="nonzero"/></g></svg>