<svg xmlns="http://www.w3.org/2000/svg" xmlns:xlink="http://www.w3.org/1999/xlink" width="48" zoomAndPan="magnify" viewBox="0 0 36 36.000001" height="48" preserveAspectRatio="xMidYMid meet" version="1.0"><defs><clipPath id="76744ce858"><path d="M 0.488281 0 L 35.511719 0 L 35.511719 35.027344 L 0.488281 35.027344 Z M 0.488281 0 " clip-rule="nonzero"/></clipPath></defs><g clip-path="url(#76744ce858)"><path fill="#ffffff" d="M 35.511719 17.511719 C 35.511719 18.085938 35.484375 18.660156 35.429688 19.230469 C 35.371094 19.800781 35.289062 20.367188 35.175781 20.929688 C 35.066406 21.492188 34.925781 22.046875 34.757812 22.597656 C 34.59375 23.144531 34.398438 23.6875 34.179688 24.214844 C 33.960938 24.746094 33.714844 25.261719 33.445312 25.769531 C 33.175781 26.273438 32.878906 26.765625 32.5625 27.242188 C 32.242188 27.71875 31.902344 28.179688 31.539062 28.625 C 31.175781 29.066406 30.789062 29.492188 30.382812 29.898438 C 29.976562 30.304688 29.554688 30.6875 29.109375 31.050781 C 28.667969 31.414062 28.207031 31.757812 27.730469 32.074219 C 27.253906 32.394531 26.761719 32.6875 26.253906 32.957031 C 25.75 33.230469 25.230469 33.472656 24.703125 33.695312 C 24.171875 33.914062 23.632812 34.105469 23.082031 34.273438 C 22.535156 34.4375 21.980469 34.578125 21.417969 34.691406 C 20.855469 34.800781 20.289062 34.886719 19.714844 34.941406 C 19.144531 35 18.574219 35.027344 18 35.027344 C 17.425781 35.027344 16.855469 35 16.285156 34.941406 C 15.710938 34.886719 15.144531 34.800781 14.582031 34.691406 C 14.019531 34.578125 13.464844 34.4375 12.917969 34.273438 C 12.367188 34.105469 11.828125 33.914062 11.296875 33.695312 C 10.769531 33.472656 10.25 33.230469 9.746094 32.957031 C 9.238281 32.6875 8.746094 32.394531 8.269531 32.074219 C 7.792969 31.757812 7.332031 31.414062 6.890625 31.050781 C 6.445312 30.6875 6.023438 30.304688 5.617188 29.898438 C 5.210938 29.492188 4.824219 29.066406 4.460938 28.625 C 4.097656 28.179688 3.757812 27.71875 3.4375 27.242188 C 3.121094 26.765625 2.824219 26.273438 2.554688 25.769531 C 2.285156 25.261719 2.039062 24.746094 1.820312 24.214844 C 1.601562 23.6875 1.40625 23.144531 1.242188 22.597656 C 1.074219 22.046875 0.933594 21.492188 0.824219 20.929688 C 0.710938 20.367188 0.628906 19.800781 0.570312 19.230469 C 0.515625 18.660156 0.488281 18.085938 0.488281 17.511719 C 0.488281 16.941406 0.515625 16.367188 0.570312 15.796875 C 0.628906 15.226562 0.710938 14.660156 0.824219 14.097656 C 0.933594 13.535156 1.074219 12.980469 1.242188 12.429688 C 1.40625 11.878906 1.601562 11.339844 1.820312 10.8125 C 2.039062 10.28125 2.285156 9.765625 2.554688 9.257812 C 2.824219 8.753906 3.121094 8.261719 3.4375 7.785156 C 3.757812 7.308594 4.097656 6.847656 4.460938 6.402344 C 4.824219 5.960938 5.210938 5.535156 5.617188 5.128906 C 6.023438 4.722656 6.445312 4.339844 6.890625 3.976562 C 7.332031 3.613281 7.792969 3.269531 8.269531 2.953125 C 8.746094 2.632812 9.238281 2.339844 9.746094 2.066406 C 10.25 1.796875 10.769531 1.554688 11.296875 1.332031 C 11.828125 1.113281 12.367188 0.921875 12.917969 0.753906 C 13.464844 0.589844 14.019531 0.449219 14.582031 0.335938 C 15.144531 0.226562 15.710938 0.140625 16.285156 0.0859375 C 16.855469 0.0273438 17.425781 0 18 0 C 18.574219 0 19.144531 0.0273438 19.714844 0.0859375 C 20.289062 0.140625 20.855469 0.226562 21.417969 0.335938 C 21.980469 0.449219 22.535156 0.589844 23.082031 0.753906 C 23.632812 0.921875 24.171875 1.113281 24.703125 1.332031 C 25.230469 1.554688 25.75 1.796875 26.253906 2.066406 C 26.761719 2.339844 27.253906 2.632812 27.730469 2.953125 C 28.207031 3.269531 28.667969 3.613281 29.109375 3.976562 C 29.554688 4.339844 29.976562 4.722656 30.382812 5.128906 C 30.789062 5.535156 31.175781 5.960938 31.539062 6.402344 C 31.902344 6.847656 32.242188 7.308594 32.5625 7.785156 C 32.878906 8.261719 33.175781 8.753906 33.445312 9.257812 C 33.714844 9.765625 33.960938 10.28125 34.179688 10.8125 C 34.398438 11.339844 34.59375 11.878906 34.757812 12.429688 C 34.925781 12.980469 35.066406 13.535156 35.175781 14.097656 C 35.289062 14.660156 35.371094 15.226562 35.429688 15.796875 C 35.484375 16.367188 35.511719 16.941406 35.511719 17.511719 Z M 35.511719 17.511719 " fill-opacity="1" fill-rule="nonzero"/></g><path fill="#9884c9" d="M 32.796875 17.511719 C 32.796875 18.484375 32.703125 19.449219 32.515625 20.402344 C 32.324219 21.355469 32.042969 22.277344 31.671875 23.175781 C 31.300781 24.074219 30.84375 24.925781 30.304688 25.734375 C 29.765625 26.542969 29.152344 27.289062 28.464844 27.976562 C 27.777344 28.664062 27.03125 29.277344 26.222656 29.816406 C 25.414062 30.359375 24.5625 30.8125 23.664062 31.183594 C 22.765625 31.558594 21.839844 31.839844 20.886719 32.027344 C 19.933594 32.21875 18.972656 32.3125 18 32.3125 C 17.027344 32.3125 16.066406 32.21875 15.113281 32.027344 C 14.160156 31.839844 13.234375 31.558594 12.335938 31.183594 C 11.4375 30.8125 10.585938 30.359375 9.777344 29.816406 C 8.96875 29.277344 8.222656 28.664062 7.535156 27.976562 C 6.847656 27.289062 6.234375 26.542969 5.695312 25.734375 C 5.15625 24.925781 4.699219 24.074219 4.328125 23.175781 C 3.957031 22.277344 3.675781 21.355469 3.484375 20.402344 C 3.296875 19.449219 3.203125 18.484375 3.203125 17.511719 C 3.203125 16.542969 3.296875 15.578125 3.484375 14.625 C 3.675781 13.671875 3.957031 12.75 4.328125 11.851562 C 4.699219 10.953125 5.15625 10.101562 5.695312 9.292969 C 6.234375 8.484375 6.847656 7.738281 7.535156 7.050781 C 8.222656 6.363281 8.96875 5.75 9.777344 5.210938 C 10.585938 4.667969 11.4375 4.214844 12.335938 3.839844 C 13.234375 3.46875 14.160156 3.1875 15.113281 3 C 16.066406 2.808594 17.027344 2.714844 18 2.714844 C 18.972656 2.714844 19.933594 2.808594 20.886719 3 C 21.839844 3.1875 22.765625 3.46875 23.664062 3.839844 C 24.5625 4.214844 25.414062 4.667969 26.222656 5.210938 C 27.03125 5.75 27.777344 6.363281 28.464844 7.050781 C 29.152344 7.738281 29.765625 8.484375 30.304688 9.292969 C 30.84375 10.101562 31.300781 10.953125 31.671875 11.851562 C 32.042969 12.75 32.324219 13.671875 32.515625 14.625 C 32.703125 15.578125 32.796875 16.542969 32.796875 17.511719 Z M 32.796875 17.511719 " fill-opacity="1" fill-rule="nonzero"/><path fill="#ffffff" d="M 18 5.636719 C 11.453125 5.636719 6.125 10.964844 6.125 17.511719 C 6.125 24.0625 11.453125 29.390625 18 29.390625 C 19.382812 29.390625 20.738281 29.152344 22.027344 28.6875 C 22.03125 28.6875 22.03125 28.6875 22.03125 28.6875 L 22.035156 28.6875 C 23.296875 28.195312 24.035156 27.488281 24.234375 26.59375 C 24.480469 25.484375 23.824219 24.398438 23.410156 23.847656 C 23.640625 23.703125 23.855469 23.535156 24.050781 23.339844 C 24.417969 22.976562 24.417969 22.386719 24.050781 22.019531 L 22.21875 20.1875 C 21.820312 19.789062 21.171875 19.789062 20.773438 20.1875 L 19.957031 21.003906 C 18.503906 20.371094 17.265625 18.972656 17.265625 18.972656 C 17.265625 18.972656 15.863281 17.734375 15.234375 16.277344 L 16.050781 15.460938 C 16.449219 15.0625 16.449219 14.417969 16.050781 14.019531 L 14.214844 12.183594 C 13.851562 11.820312 13.261719 11.820312 12.898438 12.183594 C 11.953125 13.128906 11.589844 14.511719 11.972656 15.785156 C 12.355469 17.046875 13.296875 18.738281 15.398438 20.839844 C 17.496094 22.9375 19.1875 23.878906 20.449219 24.261719 C 21.304688 24.519531 22.203125 24.441406 22.988281 24.078125 C 23.347656 24.546875 23.984375 25.539062 23.773438 26.492188 C 23.609375 27.222656 22.96875 27.8125 21.863281 28.246094 C 20.625 28.691406 19.328125 28.914062 18 28.914062 C 11.714844 28.914062 6.597656 23.800781 6.597656 17.511719 C 6.597656 11.226562 11.714844 6.113281 18 6.113281 C 24.285156 6.113281 29.402344 11.226562 29.402344 17.511719 C 29.402344 20.195312 28.453125 22.800781 26.730469 24.851562 C 26.644531 24.949219 26.65625 25.097656 26.757812 25.183594 C 26.859375 25.269531 27.007812 25.253906 27.089844 25.15625 C 28.886719 23.019531 29.875 20.308594 29.875 17.511719 C 29.875 10.964844 24.546875 5.636719 18 5.636719 Z M 18 5.636719 " fill-opacity="1" fill-rule="nonzero"/></svg>